<svg xmlns="http://www.w3.org/2000/svg" width="57" height="18" fill="none"><path stroke="#fff" stroke-linecap="round" stroke-linejoin="round" stroke-width="1.05" d="M15.284 8.09c0 2.936-2.398 5.317-5.356 5.317-2.959 0-5.357-2.38-5.357-5.318m10.713 0c0-2.936-2.398-5.317-5.356-5.317-2.959 0-5.357 2.38-5.357 5.317m10.713 0c0 3.916-3.198 7.09-7.142 7.09C4.198 15.179 1 12.005 1 8.089m3.571 0C4.571 4.174 7.769 1 11.713 1c3.945 0 7.142 3.174 7.142 7.09"/><mask id="a" width="34" height="16" x="21.742" y="2.461" fill="#000" maskUnits="userSpaceOnUse"><path fill="#fff" d="M21.742 2.461h34v16h-34z"/><path d="M27.403 13.562a5.286 5.286 0 0 1-2.585-.65 5.007 5.007 0 0 1-1.863-1.834c-.452-.79-.678-1.675-.678-2.657s.226-1.863.678-2.643a4.898 4.898 0 0 1 1.863-1.82 5.195 5.195 0 0 1 2.585-.664c.944 0 1.806.221 2.585.664.79.434 1.41 1.04 1.863 1.82.453.78.679 1.66.679 2.643 0 .982-.226 1.868-.679 2.657a4.87 4.87 0 0 1-1.863 1.834c-.78.433-1.641.65-2.585.65Zm0-1.43c.665 0 1.257-.149 1.777-.447.52-.309.924-.742 1.213-1.3.298-.568.447-1.223.447-1.964 0-.742-.149-1.391-.447-1.95a3.07 3.07 0 0 0-1.213-1.285c-.52-.299-1.112-.448-1.777-.448-.664 0-1.256.15-1.776.448a3.16 3.16 0 0 0-1.228 1.285c-.288.559-.433 1.208-.433 1.95 0 .741.145 1.396.433 1.964a3.27 3.27 0 0 0 1.228 1.3c.52.298 1.112.447 1.776.447Zm8.393-5.459c.28-.365.66-.674 1.141-.924a3.492 3.492 0 0 1 1.632-.375c.693 0 1.324.173 1.892.52.578.337 1.03.813 1.358 1.43.327.615.49 1.323.49 2.122 0 .8-.163 1.517-.49 2.152a3.716 3.716 0 0 1-1.358 1.473 3.561 3.561 0 0 1-1.892.52c-.606 0-1.146-.12-1.617-.361a3.71 3.71 0 0 1-1.156-.924v4.939H34.15V5.504h1.646v1.17Zm4.838 2.773c0-.549-.115-1.02-.346-1.415a2.205 2.205 0 0 0-.896-.91 2.324 2.324 0 0 0-1.184-.318c-.414 0-.808.106-1.184.318-.366.212-.664.52-.895.924-.222.405-.333.881-.333 1.43 0 .549.111 1.03.333 1.444.23.405.53.713.895.925.376.211.77.317 1.184.317.424 0 .819-.106 1.184-.317.376-.222.674-.54.896-.954.23-.414.346-.895.346-1.444Zm2.755 0c0-.799.163-1.507.49-2.123a3.668 3.668 0 0 1 3.265-1.95c.626 0 1.17.126 1.632.376.471.24.847.544 1.126.91V5.504h1.66v7.957h-1.66v-1.184c-.28.375-.66.688-1.14.938-.482.25-1.031.376-1.647.376-.684 0-1.31-.173-1.878-.52a3.859 3.859 0 0 1-1.357-1.473c-.328-.636-.491-1.353-.491-2.152Zm6.513.03c0-.55-.116-1.026-.347-1.43a2.333 2.333 0 0 0-.88-.925 2.324 2.324 0 0 0-1.185-.318c-.423 0-.818.106-1.184.318a2.326 2.326 0 0 0-.895.91c-.222.395-.333.866-.333 1.415s.111 1.03.333 1.444c.23.414.53.732.895.954.376.211.77.317 1.184.317.424 0 .819-.106 1.184-.317.366-.212.66-.52.881-.925.231-.414.347-.895.347-1.444Zm5.47-6.702v10.687h-1.647V2.774h1.646Z"/></mask><path fill="#fff" d="M27.403 13.562a5.286 5.286 0 0 1-2.585-.65 5.007 5.007 0 0 1-1.863-1.834c-.452-.79-.678-1.675-.678-2.657s.226-1.863.678-2.643a4.898 4.898 0 0 1 1.863-1.82 5.195 5.195 0 0 1 2.585-.664c.944 0 1.806.221 2.585.664.79.434 1.41 1.04 1.863 1.82.453.78.679 1.66.679 2.643 0 .982-.226 1.868-.679 2.657a4.87 4.87 0 0 1-1.863 1.834c-.78.433-1.641.65-2.585.65Zm0-1.43c.665 0 1.257-.149 1.777-.447.52-.309.924-.742 1.213-1.3.298-.568.447-1.223.447-1.964 0-.742-.149-1.391-.447-1.95a3.07 3.07 0 0 0-1.213-1.285c-.52-.299-1.112-.448-1.777-.448-.664 0-1.256.15-1.776.448a3.16 3.16 0 0 0-1.228 1.285c-.288.559-.433 1.208-.433 1.95 0 .741.145 1.396.433 1.964a3.27 3.27 0 0 0 1.228 1.3c.52.298 1.112.447 1.776.447Zm8.393-5.459c.28-.365.66-.674 1.141-.924a3.492 3.492 0 0 1 1.632-.375c.693 0 1.324.173 1.892.52.578.337 1.03.813 1.358 1.43.327.615.49 1.323.49 2.122 0 .8-.163 1.517-.49 2.152a3.716 3.716 0 0 1-1.358 1.473 3.561 3.561 0 0 1-1.892.52c-.606 0-1.146-.12-1.617-.361a3.71 3.71 0 0 1-1.156-.924v4.939H34.15V5.504h1.646v1.17Zm4.838 2.773c0-.549-.115-1.02-.346-1.415a2.205 2.205 0 0 0-.896-.91 2.324 2.324 0 0 0-1.184-.318c-.414 0-.808.106-1.184.318-.366.212-.664.52-.895.924-.222.405-.333.881-.333 1.43 0 .549.111 1.03.333 1.444.23.405.53.713.895.925.376.211.77.317 1.184.317.424 0 .819-.106 1.184-.317.376-.222.674-.54.896-.954.23-.414.346-.895.346-1.444Zm2.755 0c0-.799.163-1.507.49-2.123a3.668 3.668 0 0 1 3.265-1.95c.626 0 1.17.126 1.632.376.471.24.847.544 1.126.91V5.504h1.66v7.957h-1.66v-1.184c-.28.375-.66.688-1.14.938-.482.25-1.031.376-1.647.376-.684 0-1.31-.173-1.878-.52a3.859 3.859 0 0 1-1.357-1.473c-.328-.636-.491-1.353-.491-2.152Zm6.513.03c0-.55-.116-1.026-.347-1.43a2.333 2.333 0 0 0-.88-.925 2.324 2.324 0 0 0-1.185-.318c-.423 0-.818.106-1.184.318a2.326 2.326 0 0 0-.895.91c-.222.395-.333.866-.333 1.415s.111 1.03.333 1.444c.23.414.53.732.895.954.376.211.77.317 1.184.317.424 0 .819-.106 1.184-.317.366-.212.66-.52.881-.925.231-.414.347-.895.347-1.444Zm5.47-6.702v10.687h-1.647V2.774h1.646Z"/><path fill="#fff" d="m24.818 12.912-.13.228.004.002.126-.23Zm-1.863-1.834-.228.13.002.004.226-.134Zm0-5.3-.226-.134v.002l.226.132Zm1.863-1.82.128.23-.128-.23Zm5.17 0-.13.229.004.002.126-.23Zm1.863 1.82-.227.132.227-.132Zm0 5.3.227.132.001-.001-.228-.13Zm-1.863 1.834.128.23-.128-.23Zm-.808-1.227.13.227.004-.002-.134-.225Zm1.213-1.3-.233-.122v.001l.233.12Zm0-3.914-.234.12.002.004.232-.124ZM29.18 5.186l-.131.228.13-.228Zm-3.553 0 .13.228-.13-.228ZM24.399 6.47l-.231-.124-.002.004.233.12Zm0 3.914-.234.119.003.005.231-.124Zm1.228 1.3-.134.226.003.001.131-.227Zm1.776 1.614a5.02 5.02 0 0 1-2.458-.617l-.253.46c.83.456 1.735.683 2.711.683V13.3Zm-2.455-.615a4.744 4.744 0 0 1-1.767-1.74l-.452.268a5.269 5.269 0 0 0 1.96 1.928l.259-.456Zm-1.765-1.736c-.428-.747-.644-1.587-.644-2.527h-.525c0 1.024.236 1.955.713 2.788l.456-.261ZM22.54 8.42c0-.94.216-1.775.643-2.511l-.454-.264c-.478.824-.714 1.75-.714 2.775h.525Zm.642-2.51a4.636 4.636 0 0 1 1.765-1.723l-.255-.46a5.16 5.16 0 0 0-1.962 1.916l.452.268Zm1.766-1.724a4.932 4.932 0 0 1 2.456-.63V3.03c-.977 0-1.883.233-2.713.698l.257.458Zm2.456-.63c.9 0 1.717.21 2.456.63l.259-.457a5.406 5.406 0 0 0-2.715-.699v.526Zm2.459.632c.748.41 1.334.982 1.762 1.72l.454-.263a5.03 5.03 0 0 0-1.963-1.918l-.253.46Zm1.762 1.72c.427.737.643 1.572.643 2.512h.526c0-1.024-.237-1.951-.715-2.775l-.454.264Zm.643 2.512c0 .94-.216 1.78-.644 2.527l.456.26c.477-.832.714-1.763.714-2.787h-.526Zm-.643 2.525a4.608 4.608 0 0 1-1.764 1.737l.257.458a5.133 5.133 0 0 0 1.961-1.931l-.454-.264Zm-1.763 1.737a4.97 4.97 0 0 1-2.458.617v.525c.986 0 1.892-.227 2.713-.683l-.255-.46Zm-2.458-.288c.705 0 1.344-.159 1.907-.483l-.261-.455c-.476.273-1.022.413-1.646.413v.525Zm1.91-.484a3.428 3.428 0 0 0 1.313-1.405l-.466-.242a2.902 2.902 0 0 1-1.114 1.195l.268.452Zm1.312-1.404c.321-.611.478-1.309.478-2.086h-.525c0 .705-.142 1.317-.418 1.842l.465.244Zm.478-2.086c0-.777-.157-1.471-.479-2.074l-.463.248c.275.514.417 1.12.417 1.826h.525Zm-.477-2.07a3.329 3.329 0 0 0-1.316-1.393l-.261.456c.474.272.844.662 1.11 1.178l.467-.241ZM29.31 4.958c-.563-.324-1.202-.482-1.907-.482V5c.624 0 1.17.14 1.646.413l.261-.456Zm-1.907-.482c-.705 0-1.343.158-1.907.482l.262.456C26.234 5.14 26.78 5 27.403 5v-.525Zm-1.907.482a3.425 3.425 0 0 0-1.328 1.39l.463.247a2.9 2.9 0 0 1 1.127-1.181l-.262-.456Zm-1.33 1.393c-.311.601-.462 1.294-.462 2.07h.525c0-.707.137-1.314.404-1.83l-.467-.24Zm-.462 2.07c0 .776.151 1.472.461 2.083l.469-.238c-.268-.526-.405-1.138-.405-1.845h-.525Zm.464 2.088c.32.598.762 1.068 1.325 1.402l.268-.452a3 3 0 0 1-1.13-1.198l-.463.248Zm1.328 1.403c.564.324 1.202.483 1.907.483v-.525c-.623 0-1.17-.14-1.645-.413l-.262.455Zm10.3-5.239h-.262v.777l.471-.617-.209-.16Zm1.141-.924-.12-.233.12.233Zm3.524.145-.137.224.005.002.132-.226Zm1.358 1.43-.232.122.232-.123Zm0 4.274.232.122.001-.002-.233-.12Zm-1.358 1.473.137.224-.137-.224Zm-3.51.159-.122.232.003.002.12-.234Zm-1.155-.924L36 12.14l-.466-.572v.738h.262Zm0 4.939v.262h.263v-.262h-.263Zm-1.646 0h-.262v.262h.262v-.262Zm0-11.741V5.24h-.262v.263h.262Zm1.646 0h.263V5.24h-.263v.263Zm4.492 2.527-.23.126.003.007.227-.133Zm-.896-.91-.131.227.007.004.124-.23Zm-2.368 0-.129-.229-.003.002.132.227Zm-.895.924-.228-.13-.003.004.23.126Zm0 2.874-.232.124.004.007.228-.13Zm.895.925-.132.227.003.001.129-.228Zm2.368 0 .132.227.002-.001-.134-.226Zm.896-.954-.23-.128-.002.005.232.123Zm-4.283-4.057c.252-.33.6-.615 1.053-.85l-.242-.467c-.51.265-.922.597-1.228.998l.417.319Zm1.053-.85c.44-.23.942-.347 1.511-.347v-.525c-.644 0-1.23.133-1.753.405l.242.466Zm1.511-.347c.647 0 1.23.161 1.755.482l.274-.449a3.823 3.823 0 0 0-2.029-.558v.525Zm1.76.484c.533.312.952.751 1.258 1.326l.463-.246a3.8 3.8 0 0 0-1.457-1.533l-.264.453Zm1.258 1.326c.304.574.46 1.238.46 2h.525c0-.836-.171-1.587-.522-2.246l-.463.246Zm.46 2c0 .762-.156 1.438-.462 2.032l.467.24c.349-.677.52-1.436.52-2.272h-.525Zm-.461 2.03a3.453 3.453 0 0 1-1.263 1.371l.276.447a3.978 3.978 0 0 0 1.452-1.574l-.465-.244Zm-1.262 1.37a3.299 3.299 0 0 1-1.755.482v.526c.74 0 1.418-.186 2.029-.559l-.274-.448Zm-1.755.482c-.57 0-1.068-.113-1.498-.332l-.239.468c.514.262 1.095.39 1.737.39v-.526Zm-1.494-.33A3.448 3.448 0 0 1 36 12.14l-.407.332c.323.396.737.725 1.236.99l.246-.464Zm-1.541-.692v4.939h.525v-4.94h-.525Zm.262 4.676H34.15v.525h1.646v-.525Zm-1.383.263V5.504h-.525v11.74h.525ZM34.15 5.766h1.646v-.525H34.15v.525Zm1.384-.262v1.17h.525v-1.17h-.525Zm5.363 3.942c0-.586-.124-1.105-.383-1.548l-.453.266c.203.347.31.77.31 1.282h.526Zm-.379-1.541a2.467 2.467 0 0 0-1.001-1.015l-.25.462c.328.176.591.441.79.805l.461-.252Zm-.994-1.011a2.586 2.586 0 0 0-1.316-.353v.525c.378 0 .727.094 1.053.282l.263-.454Zm-1.316-.353c-.46 0-.9.118-1.313.351l.258.458c.338-.19.688-.284 1.055-.284V6.54Zm-1.316.353c-.41.237-.74.58-.991 1.021l.456.26c.21-.368.477-.64.799-.827l-.264-.454Zm-.994 1.025c-.246.45-.364.972-.364 1.556h.525c0-.513.103-.945.3-1.304l-.46-.252Zm-.364 1.556c0 .585.118 1.11.363 1.568l.463-.248c-.198-.37-.301-.807-.301-1.32h-.525Zm.367 1.575c.251.44.581.783.991 1.02l.264-.454a2.17 2.17 0 0 1-.8-.827l-.455.26Zm.994 1.022c.413.233.852.352 1.313.352v-.525c-.367 0-.717-.094-1.055-.284l-.258.457Zm1.313.352c.47 0 .91-.118 1.316-.353l-.263-.455a2.06 2.06 0 0 1-1.053.283v.525Zm1.318-.354c.42-.248.751-.603.993-1.056l-.463-.247c-.2.374-.466.655-.797.85l.267.453Zm.991-1.052c.256-.459.38-.985.38-1.572h-.525c0 .511-.108.947-.313 1.316l.458.256Zm3.363-3.695-.23-.126-.002.003.232.123Zm1.357-1.43.134.226h.002l-.136-.225Zm3.539-.144-.126.231.006.003.12-.234Zm1.126.91-.209.16.472.617v-.777h-.263Zm0-1.155V5.24h-.263v.263h.263Zm1.66 0h.263V5.24h-.262v.263Zm0 7.957v.262h.263v-.262h-.262Zm-1.66 0h-.263v.262h.263v-.262Zm0-1.184h.263v-.793l-.474.636.211.157Zm-1.14.938-.122-.232.121.232Zm-3.525-.144-.14.223.004.001.136-.224Zm-1.357-1.473-.234.12.003.005.23-.125Zm5.675-3.553-.23.126.002.005.228-.13Zm-.88-.924-.132.227.132-.227Zm-2.369 0 .127.23.005-.003-.132-.227Zm-.895.91-.228-.13-.001.001.229.129Zm0 2.86-.232.123.002.004.23-.128Zm.895.953-.136.224.007.004.13-.228Zm2.369 0 .131.227-.131-.227Zm.88-.925-.229-.128v.002l.23.126Zm-5.904-1.473c0-.762.156-1.426.46-2l-.463-.246c-.35.66-.522 1.41-.522 2.246h.525Zm.46-1.997a3.404 3.404 0 0 1 1.26-1.33l-.268-.451a3.93 3.93 0 0 0-1.453 1.53l.46.251Zm1.262-1.33a3.373 3.373 0 0 1 1.77-.483v-.525a3.9 3.9 0 0 0-2.04.557l.27.45Zm1.77-.483c.591 0 1.09.118 1.508.344l.25-.462c-.508-.274-1.096-.407-1.757-.407v.525Zm1.513.347c.442.226.785.505 1.037.835l.418-.318a3.5 3.5 0 0 0-1.216-.985l-.239.468Zm1.509.676V5.504h-.526v1.155h.526Zm-.263-.893h1.66v-.525h-1.66v.525Zm1.398-.262v7.957h.525V5.504H51.3Zm.263 7.694h-1.661v.525h1.66v-.525Zm-1.398.263v-1.184h-.526v1.184h.526Zm-.474-1.341c-.252.339-.6.628-1.051.863l.242.465c.511-.265.924-.603 1.23-1.015l-.42-.313Zm-1.051.863c-.44.228-.945.345-1.525.345v.526c.652 0 1.244-.133 1.767-.406l-.242-.466Zm-1.525.345c-.637 0-1.215-.16-1.74-.481l-.274.448a3.79 3.79 0 0 0 2.014.559v-.526Zm-1.738-.48a3.596 3.596 0 0 1-1.266-1.375l-.462.25c.357.663.84 1.189 1.449 1.57l.279-.444Zm-1.264-1.37c-.306-.594-.462-1.27-.462-2.032h-.525c0 .836.172 1.595.52 2.272l.467-.24Zm6.052-2.003c0-.586-.124-1.11-.382-1.56l-.456.26c.205.359.313.789.313 1.3h.525Zm-.38-1.556a2.594 2.594 0 0 0-.979-1.025l-.263.454c.32.186.582.457.782.823l.46-.252Zm-.979-1.025a2.586 2.586 0 0 0-1.316-.353v.525c.378 0 .727.094 1.053.282l.263-.454ZM47.49 6.54c-.47 0-.91.118-1.316.353l.264.454a2.061 2.061 0 0 1 1.052-.282V6.54Zm-1.31.35a2.588 2.588 0 0 0-.997 1.01l.456.26c.21-.367.475-.634.794-.81l-.254-.46Zm-.998 1.011c-.248.442-.366.96-.366 1.544h.525c0-.513.103-.939.299-1.287l-.458-.257Zm-.366 1.544c0 .585.118 1.11.363 1.568l.463-.247c-.198-.37-.3-.808-.3-1.32h-.526Zm.365 1.572c.251.45.58.803.99 1.05l.271-.45a2.257 2.257 0 0 1-.802-.856l-.459.256Zm.996 1.054c.413.233.852.352 1.313.352v-.525c-.367 0-.717-.094-1.055-.284l-.258.457Zm1.313.352c.47 0 .91-.118 1.316-.353l-.263-.455a2.06 2.06 0 0 1-1.053.283v.525Zm1.316-.353a2.6 2.6 0 0 0 .98-1.026l-.46-.252a2.07 2.07 0 0 1-.783.823l.263.455Zm.979-1.024c.256-.459.38-.986.38-1.572h-.526c0 .511-.107.947-.313 1.316l.459.256Zm5.587-8.273h.262v-.262h-.263v.262Zm0 10.687v.262h.262v-.262h-.263Zm-1.647 0h-.262v.262h.262v-.262Zm0-10.687v-.262h-.262v.262h.262Zm1.384 0V13.46h.525V2.774h-.525Zm.262 10.424h-1.646v.525h1.646v-.525Zm-1.383.263V2.774h-.525v10.687h.525Zm-.263-10.424h1.646v-.525h-1.646v.525Z" mask="url(#a)"/></svg>