<svg xmlns="http://www.w3.org/2000/svg" width="56" height="20" fill="none"><path stroke="#fff" stroke-linecap="round" stroke-linejoin="round" stroke-width="1.313" d="M18.855 10.08A9.08 9.08 0 0 0 1.108 7.368c-.074.236-.111.354-.108.502.003.12.04.269.093.377.065.132.166.233.369.435l9.711 9.711c.202.203.303.304.436.37a1 1 0 0 0 .376.092c.148.003.266-.034.503-.108a9.084 9.084 0 0 0 6.367-8.667Z"/><path stroke="#fff" stroke-linecap="round" stroke-linejoin="round" stroke-width="1.313" d="M2.204 7.941a9.08 9.08 0 0 1 9.71 9.71c-.027.377-.04.566-.15.682a.477.477 0 0 1-.371.139c-.16-.016-.305-.161-.594-.45L1.834 9.055c-.29-.29-.435-.434-.45-.594a.477.477 0 0 1 .138-.37c.116-.11.305-.124.682-.15Z"/><mask id="a" width="33" height="11" x="21.219" y="4.828" fill="#000" maskUnits="userSpaceOnUse"><path fill="#fff" d="M21.219 4.828h33v11h-33z"/><path d="M25.025 6.069c.933 0 1.748.18 2.445.542a3.737 3.737 0 0 1 1.626 1.537c.387.664.58 1.441.58 2.332 0 .89-.193 1.664-.58 2.319a3.78 3.78 0 0 1-1.626 1.512c-.697.345-1.512.517-2.445.517h-2.861v-8.76h2.861Zm0 7.587c1.025 0 1.81-.277 2.357-.832.546-.554.82-1.336.82-2.344 0-1.017-.274-1.81-.82-2.382-.546-.572-1.332-.857-2.357-.857h-1.424v6.415h1.424Zm12.364-5.772v6.944h-1.437v-.82a2.371 2.371 0 0 1-.895.682 2.83 2.83 0 0 1-1.16.239 3.153 3.153 0 0 1-1.474-.34 2.509 2.509 0 0 1-1.02-1.009c-.244-.445-.366-.983-.366-1.613V7.884h1.424v3.869c0 .622.155 1.1.466 1.437.311.327.736.491 1.273.491.538 0 .962-.164 1.273-.491.32-.336.48-.815.48-1.437v-3.87h1.436Zm5.4-.114c.546 0 1.033.114 1.462.34.436.227.777.563 1.02 1.009.244.445.366.983.366 1.613v4.096h-1.424v-3.882c0-.621-.156-1.096-.467-1.424-.31-.336-.735-.504-1.273-.504-.537 0-.966.168-1.285.504-.311.328-.467.803-.467 1.424v3.882h-1.436V7.884h1.437v.794c.235-.286.533-.509.894-.668.37-.16.76-.24 1.172-.24Zm11.045 3.416c0 .26-.016.495-.05.706h-5.306c.042.554.248 1 .617 1.335.37.337.824.505 1.362.505.773 0 1.319-.324 1.638-.97h1.55a3.149 3.149 0 0 1-1.147 1.575c-.546.403-1.226.605-2.041.605-.664 0-1.26-.148-1.79-.442a3.297 3.297 0 0 1-1.235-1.26c-.294-.546-.441-1.176-.441-1.89 0-.715.142-1.34.428-1.878a3.1 3.1 0 0 1 1.223-1.26c.53-.295 1.134-.442 1.815-.442.655 0 1.239.143 1.752.429.512.285.911.689 1.197 1.21.286.512.428 1.104.428 1.777Zm-1.5-.454c-.008-.53-.197-.954-.567-1.273-.37-.32-.827-.479-1.373-.479-.496 0-.92.16-1.273.479-.353.31-.563.735-.63 1.273h3.844Z"/></mask><path fill="#fff" d="M25.025 6.069c.933 0 1.748.18 2.445.542a3.737 3.737 0 0 1 1.626 1.537c.387.664.58 1.441.58 2.332 0 .89-.193 1.664-.58 2.319a3.78 3.78 0 0 1-1.626 1.512c-.697.345-1.512.517-2.445.517h-2.861v-8.76h2.861Zm0 7.587c1.025 0 1.81-.277 2.357-.832.546-.554.82-1.336.82-2.344 0-1.017-.274-1.81-.82-2.382-.546-.572-1.332-.857-2.357-.857h-1.424v6.415h1.424Zm12.364-5.772v6.944h-1.437v-.82a2.371 2.371 0 0 1-.895.682 2.83 2.83 0 0 1-1.16.239 3.153 3.153 0 0 1-1.474-.34 2.509 2.509 0 0 1-1.02-1.009c-.244-.445-.366-.983-.366-1.613V7.884h1.424v3.869c0 .622.155 1.1.466 1.437.311.327.736.491 1.273.491.538 0 .962-.164 1.273-.491.32-.336.48-.815.48-1.437v-3.87h1.436Zm5.4-.114c.546 0 1.033.114 1.462.34.436.227.777.563 1.02 1.009.244.445.366.983.366 1.613v4.096h-1.424v-3.882c0-.621-.156-1.096-.467-1.424-.31-.336-.735-.504-1.273-.504-.537 0-.966.168-1.285.504-.311.328-.467.803-.467 1.424v3.882h-1.436V7.884h1.437v.794c.235-.286.533-.509.894-.668.37-.16.76-.24 1.172-.24Zm11.045 3.416c0 .26-.016.495-.05.706h-5.306c.042.554.248 1 .617 1.335.37.337.824.505 1.362.505.773 0 1.319-.324 1.638-.97h1.55a3.149 3.149 0 0 1-1.147 1.575c-.546.403-1.226.605-2.041.605-.664 0-1.26-.148-1.79-.442a3.297 3.297 0 0 1-1.235-1.26c-.294-.546-.441-1.176-.441-1.89 0-.715.142-1.34.428-1.878a3.1 3.1 0 0 1 1.223-1.26c.53-.295 1.134-.442 1.815-.442.655 0 1.239.143 1.752.429.512.285.911.689 1.197 1.21.286.512.428 1.104.428 1.777Zm-1.5-.454c-.008-.53-.197-.954-.567-1.273-.37-.32-.827-.479-1.373-.479-.496 0-.92.16-1.273.479-.353.31-.563.735-.63 1.273h3.844Z"/><path fill="#fff" d="m27.47 6.61-.12.234.003.001.117-.234Zm1.626 1.538-.229.129.002.003.227-.132Zm0 4.651-.226-.133-.002.002.228.131Zm-1.626 1.512.116.236h.002l-.118-.236Zm-5.306.517h-.263v.263h.263v-.263Zm0-8.76v-.262h-.263v.263h.263Zm5.218 6.756-.187-.184.187.184ZM23.6 7.241v-.263h-.263v.263h.263Zm0 6.415h-.263v.263h.263v-.263Zm1.424-7.325c.899 0 1.67.174 2.324.513l.242-.467c-.741-.383-1.6-.57-2.566-.57v.524Zm2.328.514c.66.33 1.162.807 1.514 1.432l.458-.257a4 4 0 0 0-1.738-1.644l-.234.47Zm1.516 1.435c.36.618.544 1.348.544 2.2h.525c0-.93-.202-1.754-.615-2.464l-.454.264Zm.544 2.2c0 .852-.184 1.577-.543 2.186l.452.266c.414-.702.616-1.523.616-2.452h-.525Zm-.544 2.188a3.516 3.516 0 0 1-1.516 1.409l.234.47a4.041 4.041 0 0 0 1.736-1.617l-.454-.262Zm-1.515 1.408c-.655.323-1.429.49-2.329.49v.525c.965 0 1.821-.179 2.561-.544l-.232-.471Zm-2.329.49h-2.861v.525h2.861v-.525Zm-2.598.262v-8.76H21.9v8.76h.526Zm-.263-8.497h2.861v-.525h-2.861v.525Zm2.861 7.588c1.072 0 1.934-.292 2.544-.91l-.374-.37c-.483.49-1.192.754-2.17.754v.526Zm2.544-.91c.608-.618.895-1.473.895-2.53h-.525c0 .961-.26 1.669-.744 2.16l.374.37Zm.895-2.53c0-1.063-.287-1.93-.892-2.563l-.38.363c.487.51.747 1.232.747 2.2h.525Zm-.892-2.563c-.61-.637-1.473-.938-2.547-.938v.525c.976 0 1.684.27 2.167.776l.38-.363Zm-2.547-.938H23.6v.525h1.424v-.525Zm-1.687.263v6.415h.525V7.241h-.525Zm.263 6.678h1.424v-.526H23.6v.526Zm13.788-6.035h.262V7.62h-.262v.263Zm0 6.944v.263h.262v-.263h-.262Zm-1.437 0h-.262v.263h.262v-.263Zm0-.82h.263v-.752l-.469.59.206.163Zm-.895.682.106.24.003-.002-.109-.239Zm-2.634-.101-.123.232h.002l.121-.232Zm-1.02-1.009-.231.126.002.004.228-.13Zm-.366-5.696V7.62h-.263v.263h.263Zm1.424 0h.263V7.62h-.263v.263Zm.466 5.306-.193.178.003.002.19-.18Zm2.546 0-.19-.181.19.18Zm.48-5.306V7.62h-.264v.263h.263Zm1.173 0v6.944h.526V7.884h-.526Zm.263 6.682h-1.437v.525h1.437v-.525Zm-1.174.262v-.82h-.526v.82h.526Zm-.469-.982c-.198.25-.461.452-.797.604l.217.479c.403-.184.736-.435.992-.757l-.412-.326Zm-.795.603a2.573 2.573 0 0 1-1.053.217v.525a3.1 3.1 0 0 0 1.265-.261l-.212-.48Zm-1.053.217a2.89 2.89 0 0 1-1.354-.31l-.242.466c.478.248 1.012.37 1.596.37v-.526Zm-1.352-.31a2.246 2.246 0 0 1-.915-.905l-.457.259c.275.486.65.86 1.126 1.11l.246-.463Zm-.913-.902c-.218-.398-.334-.89-.334-1.487h-.525c0 .664.129 1.247.398 1.74l.46-.253Zm-.334-1.487V7.884h-.525v4.083h.525Zm-.262-3.82h1.424V7.62h-1.424v.525Zm1.161-.263v3.869h.526v-3.87h-.526Zm0 3.869c0 .664.167 1.215.536 1.615l.386-.357c-.252-.272-.396-.678-.396-1.258h-.526Zm.539 1.617c.37.39.868.574 1.463.574v-.525c-.48 0-.83-.145-1.082-.41l-.381.361Zm1.463.574c.595 0 1.094-.184 1.464-.574l-.381-.361c-.252.265-.602.41-1.083.41v.525Zm1.463-.574c.38-.4.552-.952.552-1.617h-.526c0 .578-.147.983-.406 1.256l.38.361Zm.552-1.617v-3.87h-.526v3.87h.526Zm-.263-3.607h1.437v-.525h-1.437v.525Zm8.299-.036-.123.232.002.001.12-.233Zm1.02 1.009-.23.126.23-.126Zm.366 5.71v.262h.262v-.263h-.262Zm-1.424 0h-.263v.262h.263v-.263Zm-.467-5.307-.192.178.002.003.19-.181Zm-2.558 0-.19-.18.19.18Zm-.467 5.306v.263h.263v-.263h-.263Zm-1.436 0h-.263v.263h.263v-.263Zm0-6.944V7.62h-.263v.263h.263Zm1.437 0h.262V7.62h-.263v.263Zm0 .794h-.263v.731l.465-.564-.203-.167Zm.894-.668-.104-.241h-.002l.106.24Zm1.172.023c.51 0 .954.105 1.34.31l.245-.465a3.338 3.338 0 0 0-1.584-.37v.525Zm1.342.31c.389.203.691.5.911.902l.46-.252a2.673 2.673 0 0 0-1.13-1.116l-.242.466Zm.911.902c.218.398.333.89.333 1.487h.525c0-.664-.128-1.247-.397-1.74l-.461.253Zm.333 1.487v4.096h.525v-4.096h-.525Zm.263 3.834h-1.424v.525h1.424v-.525Zm-1.162.262v-3.882h-.525v3.882h.525Zm0-3.882c0-.663-.166-1.212-.538-1.605l-.381.362c.25.263.394.663.394 1.243h.525Zm-.536-1.602c-.37-.4-.869-.589-1.466-.589v.525c.479 0 .828.147 1.08.42l.386-.356Zm-1.466-.589c-.597 0-1.099.19-1.476.586l.381.362c.262-.276.617-.423 1.095-.423v-.525Zm-1.476.586c-.372.393-.538.942-.538 1.605h.525c0-.58.145-.98.394-1.243l-.38-.362Zm-.538 1.605v3.882h.525v-3.882h-.525Zm.262 3.62h-1.436v.525h1.437v-.525Zm-1.174.262V7.884h-.525v6.944h.525Zm-.262-6.682h1.437v-.525h-1.437v.525Zm1.174-.262v.794h.525v-.794h-.525Zm.465.96c.208-.251.472-.45.798-.594l-.212-.48a2.65 2.65 0 0 0-.991.74l.405.335Zm.796-.593a2.663 2.663 0 0 1 1.069-.218v-.525c-.447 0-.873.086-1.277.26l.208.483Zm12.064 3.64v.263h.224l.035-.221-.259-.041Zm-5.306 0v-.262h-.283l.021.282.262-.02Zm.617 1.336-.176.195.177-.195Zm3-.466V12.5h-.163l-.072.146.235.116Zm1.55 0 .25.082.113-.344h-.363v.262Zm-1.147 1.576.156.21-.156-.21Zm-3.831.163-.132.227.004.003.128-.23Zm-1.235-1.26-.231.125.002.004.229-.129Zm-.013-3.768-.231-.125v.001l.231.124Zm1.223-1.26-.128-.23h-.001l.129.23Zm3.566-.013.128-.23-.127.23Zm1.198 1.21-.23.126v.001l.23-.127Zm-1.071 1.323v.263h.266l-.004-.267-.262.004Zm-.568-1.273.172-.199-.172.199Zm-2.646 0 .173.197.003-.002-.176-.195Zm-.63 1.273-.261-.033-.037.296h.297v-.263Zm5.08.454c0 .25-.015.47-.046.664l.518.083c.037-.226.054-.476.054-.747h-.525Zm.213.443h-5.306v.525h5.306v-.525Zm-5.568.282c.047.614.278 1.124.703 1.51l.353-.388c-.314-.285-.495-.665-.532-1.161l-.524.04Zm.703 1.51c.422.384.94.573 1.538.573v-.525c-.478 0-.867-.147-1.185-.436l-.353.389Zm1.538.573c.423 0 .801-.089 1.123-.28.323-.19.572-.474.75-.837l-.47-.232a1.42 1.42 0 0 1-.548.618c-.224.133-.506.206-.855.206v.525Zm1.638-.97h1.55v-.525h-1.55v.525Zm1.3-.345a2.887 2.887 0 0 1-1.053 1.447l.313.421a3.412 3.412 0 0 0 1.24-1.704l-.5-.164Zm-1.053 1.446c-.492.364-1.115.554-1.885.554v.525c.86 0 1.598-.213 2.197-.656l-.312-.423Zm-1.885.554a3.367 3.367 0 0 1-1.663-.408l-.255.459c.572.318 1.214.474 1.918.474v-.525Zm-1.658-.406a3.035 3.035 0 0 1-1.138-1.162l-.458.258a3.56 3.56 0 0 0 1.332 1.358l.264-.454Zm-1.136-1.157c-.27-.503-.41-1.09-.41-1.766h-.525c0 .75.155 1.425.473 2.015l.462-.25Zm-.41-1.766c0-.68.136-1.261.398-1.755l-.464-.247c-.309.582-.459 1.252-.459 2.002h.525Zm.397-1.754a2.838 2.838 0 0 1 1.12-1.156l-.257-.457a3.363 3.363 0 0 0-1.325 1.364l.462.25Zm1.12-1.155c.485-.27 1.045-.408 1.687-.408v-.525c-.72 0-1.37.155-1.943.474l.255.459Zm1.687-.408c.616 0 1.155.134 1.624.395l.255-.459c-.556-.31-1.185-.461-1.88-.461v.525Zm1.624.395c.468.261.832.629 1.095 1.107l.46-.253a3.28 3.28 0 0 0-1.3-1.313l-.255.459Zm1.095 1.108c.261.469.396 1.016.396 1.65h.525c0-.71-.151-1.348-.462-1.905l-.459.255Zm-.579 1.192c-.01-.597-.227-1.095-.658-1.468l-.343.398c.308.266.469.617.476 1.078l.525-.008ZM51.94 9.26c-.423-.365-.944-.543-1.545-.543v.526c.49 0 .886.142 1.202.415l.343-.398Zm-1.545-.543c-.558 0-1.046.182-1.45.547l.353.39a1.57 1.57 0 0 1 1.097-.411v-.526Zm-1.447.545c-.408.36-.643.846-.717 1.437l.521.066c.06-.485.246-.847.543-1.109l-.347-.394Zm-.457 1.732h3.845v-.525H48.49v.526Z" mask="url(#a)"/></svg>