<svg xmlns="http://www.w3.org/2000/svg" width="50" height="17" fill="none"><path fill="#fff" stroke="#fff" stroke-width=".03" d="M4.601 16.266h44.752v-2.134H4.601a2.18 2.18 0 0 1 0-4.357h6.477V7.64H4.601a2.182 2.182 0 0 1-2.179-2.18c0-1.202.978-2.18 2.18-2.18h6.476V1.149H4.601A4.316 4.316 0 0 0 .29 5.461c0 1.295.585 2.442 1.49 3.234l.013.011-.013.012C.874 9.51.29 10.659.29 11.952a4.319 4.319 0 0 0 4.31 4.314Z"/><mask id="a" width="37" height="13" x="12.602" y=".102" fill="#000" maskUnits="userSpaceOnUse"><path fill="#fff" d="M12.602.102h37v13h-37z"/><path d="M17.415 12.277c-.817 0-1.53-.187-2.14-.561a3.79 3.79 0 0 1-1.419-1.573c-.337-.673-.505-1.46-.505-2.361 0-.905.168-1.695.505-2.373a3.782 3.782 0 0 1 1.42-1.578c.608-.374 1.322-.562 2.14-.562.816 0 1.53.188 2.139.562.61.375 1.082.9 1.42 1.578.336.678.504 1.468.504 2.373 0 .9-.168 1.688-.505 2.361a3.79 3.79 0 0 1-1.419 1.573c-.61.374-1.323.562-2.14.562Zm.006-1.424c.53 0 .969-.14 1.317-.42a2.46 2.46 0 0 0 .772-1.118 4.46 4.46 0 0 0 .255-1.539 4.43 4.43 0 0 0-.255-1.532 2.496 2.496 0 0 0-.772-1.13c-.348-.284-.787-.426-1.317-.426-.534 0-.977.142-1.328.426-.349.284-.608.66-.778 1.13-.167.465-.25.976-.25 1.532 0 .56.083 1.073.25 1.539.17.465.43.838.778 1.118.351.28.794.42 1.328.42Zm9.625 1.425c-.817 0-1.53-.188-2.14-.562a3.79 3.79 0 0 1-1.419-1.573c-.336-.673-.505-1.46-.505-2.361 0-.905.169-1.695.505-2.373a3.781 3.781 0 0 1 1.42-1.578c.609-.374 1.322-.562 2.14-.562.817 0 1.53.188 2.14.562.608.375 1.081.9 1.418 1.578.337.678.505 1.468.505 2.373 0 .9-.168 1.688-.505 2.361a3.79 3.79 0 0 1-1.419 1.573c-.609.374-1.322.562-2.14.562Zm.006-1.425c.53 0 .969-.14 1.317-.42.348-.28.605-.653.772-1.118a4.46 4.46 0 0 0 .255-1.539 4.43 4.43 0 0 0-.255-1.532 2.497 2.497 0 0 0-.772-1.13c-.348-.284-.787-.426-1.317-.426-.534 0-.976.142-1.328.426-.348.284-.608.66-.778 1.13a4.53 4.53 0 0 0-.25 1.532c0 .56.084 1.073.25 1.539.17.465.43.838.778 1.118.352.28.794.42 1.328.42Zm7.514-1.709-.011-2.072h.295l3.474-3.69h2.032l-3.962 4.201h-.267l-1.561 1.561Zm-1.561 2.958V.477h1.697v11.625h-1.697Zm5.506 0-3.122-4.144 1.17-1.186 4.035 5.33h-2.083Zm9.925-6.59-1.538.272a1.822 1.822 0 0 0-.307-.562 1.516 1.516 0 0 0-.556-.437c-.235-.114-.528-.17-.88-.17-.48 0-.882.107-1.203.323-.322.212-.483.486-.483.823 0 .292.108.526.324.704.215.178.564.324 1.044.437l1.385.318c.802.185 1.4.471 1.794.857.394.386.59.887.59 1.504 0 .523-.151.988-.454 1.397-.299.405-.717.722-1.254.953-.534.231-1.153.347-1.857.347-.976 0-1.772-.209-2.39-.625-.616-.42-.994-1.016-1.135-1.788l1.641-.25c.102.428.312.752.63.971.318.216.732.323 1.243.323.556 0 1.001-.115 1.334-.346.333-.234.5-.52.5-.857a.89.89 0 0 0-.307-.687c-.2-.185-.509-.325-.925-.42l-1.476-.323c-.814-.186-1.415-.48-1.805-.886-.386-.405-.579-.917-.579-1.538a2.2 2.2 0 0 1 .431-1.351c.288-.386.685-.687 1.192-.903.508-.219 1.088-.329 1.743-.329.942 0 1.684.205 2.225.613.541.405.899.948 1.073 1.63Z"/></mask><path fill="#fff" d="M17.415 12.277c-.817 0-1.53-.187-2.14-.561a3.79 3.79 0 0 1-1.419-1.573c-.337-.673-.505-1.46-.505-2.361 0-.905.168-1.695.505-2.373a3.782 3.782 0 0 1 1.42-1.578c.608-.374 1.322-.562 2.14-.562.816 0 1.53.188 2.139.562.61.375 1.082.9 1.42 1.578.336.678.504 1.468.504 2.373 0 .9-.168 1.688-.505 2.361a3.79 3.79 0 0 1-1.419 1.573c-.61.374-1.323.562-2.14.562Zm.006-1.424c.53 0 .969-.14 1.317-.42a2.46 2.46 0 0 0 .772-1.118 4.46 4.46 0 0 0 .255-1.539 4.43 4.43 0 0 0-.255-1.532 2.496 2.496 0 0 0-.772-1.13c-.348-.284-.787-.426-1.317-.426-.534 0-.977.142-1.328.426-.349.284-.608.66-.778 1.13-.167.465-.25.976-.25 1.532 0 .56.083 1.073.25 1.539.17.465.43.838.778 1.118.351.28.794.42 1.328.42Zm9.625 1.425c-.817 0-1.53-.188-2.14-.562a3.79 3.79 0 0 1-1.419-1.573c-.336-.673-.505-1.46-.505-2.361 0-.905.169-1.695.505-2.373a3.781 3.781 0 0 1 1.42-1.578c.609-.374 1.322-.562 2.14-.562.817 0 1.53.188 2.14.562.608.375 1.081.9 1.418 1.578.337.678.505 1.468.505 2.373 0 .9-.168 1.688-.505 2.361a3.79 3.79 0 0 1-1.419 1.573c-.609.374-1.322.562-2.14.562Zm.006-1.425c.53 0 .969-.14 1.317-.42.348-.28.605-.653.772-1.118a4.46 4.46 0 0 0 .255-1.539 4.43 4.43 0 0 0-.255-1.532 2.497 2.497 0 0 0-.772-1.13c-.348-.284-.787-.426-1.317-.426-.534 0-.976.142-1.328.426-.348.284-.608.66-.778 1.13a4.53 4.53 0 0 0-.25 1.532c0 .56.084 1.073.25 1.539.17.465.43.838.778 1.118.352.28.794.42 1.328.42Zm7.514-1.709-.011-2.072h.295l3.474-3.69h2.032l-3.962 4.201h-.267l-1.561 1.561Zm-1.561 2.958V.477h1.697v11.625h-1.697Zm5.506 0-3.122-4.144 1.17-1.186 4.035 5.33h-2.083Zm9.925-6.59-1.538.272a1.822 1.822 0 0 0-.307-.562 1.516 1.516 0 0 0-.556-.437c-.235-.114-.528-.17-.88-.17-.48 0-.882.107-1.203.323-.322.212-.483.486-.483.823 0 .292.108.526.324.704.215.178.564.324 1.044.437l1.385.318c.802.185 1.4.471 1.794.857.394.386.59.887.59 1.504 0 .523-.151.988-.454 1.397-.299.405-.717.722-1.254.953-.534.231-1.153.347-1.857.347-.976 0-1.772-.209-2.39-.625-.616-.42-.994-1.016-1.135-1.788l1.641-.25c.102.428.312.752.63.971.318.216.732.323 1.243.323.556 0 1.001-.115 1.334-.346.333-.234.5-.52.5-.857a.89.89 0 0 0-.307-.687c-.2-.185-.509-.325-.925-.42l-1.476-.323c-.814-.186-1.415-.48-1.805-.886-.386-.405-.579-.917-.579-1.538a2.2 2.2 0 0 1 .431-1.351c.288-.386.685-.687 1.192-.903.508-.219 1.088-.329 1.743-.329.942 0 1.684.205 2.225.613.541.405.899.948 1.073 1.63Z"/><path fill="#fff" d="m13.856 10.143.204-.102-.204.102Zm1.42-6.312.119.195-.12-.195Zm4.279 0-.12.195.12-.195Zm1.42 6.312-.205-.102.204.102Zm-1.42 1.573.12.194-.12-.194Zm-.817-1.283-.143-.178.143.178Zm.772-1.118-.215-.079v.002l.215.077Zm0-3.071-.216.076.001.002.215-.078Zm-.772-1.13-.145.177.145-.177Zm-2.645 0-.144-.178v.001l.144.177Zm-.778 1.13-.215-.078.215.078Zm0 3.07-.215.077v.002l.215-.078Zm.778 1.119-.144.178h.001l.143-.178Zm1.322 1.616c-.781 0-1.452-.178-2.02-.528l-.24.39c.65.399 1.407.595 2.26.595v-.457Zm-2.02-.528a3.562 3.562 0 0 1-1.335-1.48l-.408.204c.355.71.856 1.267 1.504 1.665l.239-.389Zm-1.335-1.48c-.318-.636-.48-1.387-.48-2.26h-.457c0 .93.173 1.753.529 2.464l.408-.204Zm-.48-2.26c0-.875.162-1.63.48-2.27l-.408-.203c-.356.714-.53 1.541-.53 2.474h.457Zm.48-2.27a3.554 3.554 0 0 1 1.335-1.485l-.24-.39a4.01 4.01 0 0 0-1.503 1.672l.409.203Zm1.335-1.485c.568-.35 1.239-.528 2.02-.528V3.04c-.853 0-1.61.196-2.26.596l.24.389Zm2.02-.528c.781 0 1.452.178 2.02.528l.24-.39c-.65-.4-1.407-.595-2.26-.595v.457Zm2.02.528c.571.35 1.016.843 1.335 1.485l.409-.203a4.01 4.01 0 0 0-1.504-1.671l-.24.389ZM20.77 5.51c.318.64.48 1.395.48 2.27h.458c0-.932-.174-1.759-.53-2.473l-.408.203Zm.48 2.27c0 .873-.162 1.624-.48 2.26l.408.204c.356-.71.53-1.534.53-2.463h-.457Zm-.48 2.26a3.562 3.562 0 0 1-1.335 1.48l.24.39a4.018 4.018 0 0 0 1.503-1.666l-.408-.204Zm-1.335 1.48c-.568.35-1.239.528-2.02.528v.457c.854 0 1.61-.196 2.26-.596l-.24-.389Zm-2.014-.44c.572 0 1.064-.152 1.46-.47l-.287-.356c-.3.241-.686.37-1.173.37v.456Zm1.46-.47a2.69 2.69 0 0 0 .844-1.22l-.43-.153c-.154.43-.389.766-.7 1.017l.286.356Zm.843-1.218a4.69 4.69 0 0 0 .27-1.617h-.457c0 .537-.082 1.023-.242 1.46l.429.157Zm.27-1.617c0-.58-.09-1.117-.27-1.61l-.429.156c.16.438.242.921.242 1.454h.456Zm-.27-1.609a2.724 2.724 0 0 0-.842-1.23l-.289.354c.313.255.547.595.701 1.029l.43-.153Zm-.842-1.23c-.396-.323-.889-.477-1.461-.477v.457c.487 0 .872.13 1.172.374l.289-.354ZM17.42 4.46c-.576 0-1.072.154-1.472.476l.287.356c.304-.246.694-.375 1.185-.375V4.46Zm-1.473.477a2.764 2.764 0 0 0-.848 1.229l.43.156c.157-.435.394-.776.707-1.03l-.289-.355Zm-.848 1.23a4.75 4.75 0 0 0-.263 1.61h.456c0-.534.08-1.019.237-1.456l-.43-.154Zm-.263 1.61c0 .582.086 1.121.263 1.614l.43-.153a4.31 4.31 0 0 1-.237-1.462h-.456Zm.263 1.616c.183.5.465.909.85 1.218l.286-.356a2.273 2.273 0 0 1-.707-1.019l-.429.157Zm.85 1.218c.4.318.896.47 1.47.47v-.457c-.491 0-.881-.128-1.185-.37l-.285.357Zm7.537-.468.205-.102-.205.102Zm1.42-6.312.119.195-.12-.195Zm4.28 0-.12.195.12-.195Zm1.418 6.312-.204-.102.204.102Zm-1.419 1.573.12.194-.12-.194Zm-.817-1.283-.143-.178.143.178Zm.772-1.118-.215-.079v.002l.215.077Zm0-3.071-.215.076v.002l.215-.078Zm-.772-1.13-.144.177.144-.177Zm-2.645 0-.144-.178v.001l.144.177Zm-.778 1.13-.215-.078.215.078Zm0 3.07-.215.077v.002l.215-.078Zm.778 1.119-.143.178.143-.178Zm1.322 1.616c-.781 0-1.452-.178-2.02-.528l-.24.39c.65.399 1.407.595 2.26.595v-.457Zm-2.02-.528a3.562 3.562 0 0 1-1.334-1.48l-.409.204c.355.71.856 1.267 1.504 1.665l.239-.389Zm-1.334-1.48c-.319-.636-.482-1.387-.482-2.26h-.456c0 .93.174 1.753.529 2.464l.409-.204Zm-.482-2.26c0-.875.163-1.63.482-2.27l-.41-.203c-.355.714-.528 1.541-.528 2.474h.456Zm.482-2.27a3.554 3.554 0 0 1 1.334-1.485l-.24-.39a4.01 4.01 0 0 0-1.503 1.672l.409.203Zm1.334-1.485c.568-.35 1.239-.528 2.02-.528V3.04c-.853 0-1.61.196-2.26.596l.24.389Zm2.02-.528c.782 0 1.452.178 2.02.528l.24-.39c-.65-.4-1.406-.595-2.26-.595v.457Zm2.02.528c.571.35 1.016.843 1.335 1.485l.409-.203a4.01 4.01 0 0 0-1.504-1.671l-.24.389ZM30.4 5.511c.318.64.481 1.395.481 2.27h.457c0-.932-.174-1.759-.53-2.473l-.408.203Zm.481 2.27c0 .873-.163 1.624-.48 2.26l.408.204c.355-.71.529-1.534.529-2.463h-.457Zm-.48 2.26a3.561 3.561 0 0 1-1.335 1.48l.239.39a4.019 4.019 0 0 0 1.504-1.666l-.409-.204Zm-1.335 1.48c-.569.35-1.24.528-2.02.528v.457c.853 0 1.609-.196 2.259-.596l-.24-.389Zm-2.015-.44c.572 0 1.064-.152 1.46-.47l-.286-.356c-.3.241-.686.37-1.174.37v.456Zm1.46-.47c.384-.31.665-.719.844-1.22l-.43-.153c-.154.43-.388.766-.7 1.017l.286.356Zm.843-1.218a4.69 4.69 0 0 0 .27-1.617h-.457a4.22 4.22 0 0 1-.242 1.46l.43.157Zm.27-1.617c0-.58-.09-1.117-.27-1.61l-.429.156c.16.438.242.921.242 1.454h.457Zm-.269-1.609a2.724 2.724 0 0 0-.843-1.23l-.288.354c.312.255.546.595.7 1.029l.431-.153Zm-.843-1.23c-.396-.323-.889-.477-1.461-.477v.457c.487 0 .872.13 1.173.374l.288-.354Zm-1.461-.477c-.576 0-1.072.154-1.472.476l.287.356c.304-.246.694-.375 1.185-.375V4.46Zm-1.473.477a2.765 2.765 0 0 0-.848 1.229l.43.156c.157-.435.394-.776.707-1.03l-.289-.355Zm-.848 1.23a4.748 4.748 0 0 0-.263 1.61h.457c0-.534.08-1.019.236-1.456l-.43-.154Zm-.263 1.61c0 .582.087 1.121.263 1.614l.43-.153a4.31 4.31 0 0 1-.236-1.462h-.457Zm.264 1.616c.183.5.465.909.849 1.218l.286-.356a2.273 2.273 0 0 1-.707-1.019l-.428.157Zm.85 1.218c.4.318.895.47 1.47.47v-.457c-.492 0-.882-.128-1.186-.37l-.285.357Zm8.984-1.467-.228.001.003.548.386-.387-.161-.162Zm-.011-2.072v-.228h-.23l.001.23.229-.002Zm.295 0v.229h.098l.068-.072-.166-.157Zm3.474-3.69v-.228h-.099l-.068.072.167.157Zm2.032 0 .166.157.363-.385h-.53v.229Zm-3.962 4.201v.229h.098l.068-.072-.166-.157Zm-.267 0v-.228h-.095l-.066.067.16.161Zm-3.122 4.519h-.228v.228h.228v-.228Zm0-11.625V.248h-.228v.229h.228Zm1.697 0h.229V.248h-.229v.229Zm0 11.625v.228h.229v-.228h-.229Zm3.809 0-.182.137.068.09h.114v-.227Zm-3.122-4.144-.163-.16-.138.14.119.157.182-.137Zm1.17-1.186.181-.138-.159-.21-.185.187.162.16Zm4.035 5.33v.228h.46l-.278-.366-.182.138Zm-5.8-2.959-.011-2.072-.457.003.012 2.071.456-.002Zm-.24-1.842h.296v-.457h-.295v.457Zm.462-.072 3.474-3.69-.333-.313-3.473 3.69.332.313Zm3.308-3.618h2.032v-.457h-2.032v.457Zm1.866-.385-3.962 4.2.332.314 3.962-4.2-.332-.314Zm-3.796 4.129h-.267v.457h.267v-.457Zm-.428.067-1.562 1.56.323.324 1.561-1.561-.322-.323Zm-2.733 4.68V.477h-.456v11.625h.456ZM33.005.705h1.697V.248h-1.697v.457Zm1.469-.228v11.625h.457V.477h-.457Zm.228 11.396h-1.697v.457h1.697v-.457Zm3.991.091L35.571 7.82l-.364.275 3.122 4.144.364-.275Zm-3.141-3.846 1.169-1.186-.325-.32-1.17 1.186.326.32Zm.824-1.209 4.036 5.33.364-.275-4.036-5.33-.364.275Zm4.218 4.964h-2.083v.457h2.083v-.457Zm7.842-6.362.04.225.242-.043-.06-.238-.222.056Zm-1.538.273-.217.07.061.19.196-.035-.04-.225Zm-.307-.562-.181.139.002.002.18-.141Zm-.556-.437.1-.206-.1.206Zm-2.083.153.125.19h.002l-.127-.19Zm.885 1.964-.052.222h.001l.051-.222Zm1.385.318.052-.223-.052.223Zm1.794.857-.16.163.16-.163Zm.136 2.9-.183-.135.183.136Zm-1.254.954-.09-.21h-.001l.09.21Zm-4.246-.278-.129.189h.001l.128-.189Zm-1.136-1.788-.034-.226-.232.036.042.23.224-.04Zm1.641-.25.222-.053-.049-.204-.207.032.034.225Zm.63.971-.13.188h.002l.128-.188Zm2.577-.023.13.188.002-.001-.132-.187Zm.193-1.544-.155.168.002.001.153-.169Zm-.925-.42.05-.222h-.001l-.05.222Zm-1.476-.323-.05.222h.001l.049-.222Zm-1.805-.886-.165.158.165-.158Zm-.148-2.889-.183-.136.183.136Zm1.192-.903.09.21h.001l-.09-.21Zm3.968.284-.138.183h.001l.137-.183Zm1.033 1.405-1.538.272.08.45 1.538-.273-.08-.45Zm-1.281.426a2.051 2.051 0 0 0-.344-.632l-.36.282c.126.159.214.323.27.492l.434-.142Zm-.343-.63a1.744 1.744 0 0 0-.638-.504l-.199.411c.208.1.364.226.475.37l.362-.277Zm-.638-.504c-.274-.133-.604-.193-.979-.193v.457c.329 0 .586.053.78.147l.2-.41Zm-.979-.193c-.515 0-.963.116-1.33.362l.254.38c.276-.185.63-.285 1.076-.285v-.457Zm-1.329.361c-.375.247-.585.589-.585 1.014h.456c0-.248.112-.455.38-.632l-.251-.382Zm-.585 1.014c0 .356.136.657.407.88l.29-.352a.64.64 0 0 1-.24-.528h-.457Zm.407.88c.255.211.644.367 1.137.483l.105-.444c-.47-.11-.777-.247-.952-.391l-.29.352Zm1.138.484 1.385.318.102-.446-1.385-.317-.102.445Zm1.385.317c.78.18 1.333.453 1.685.798l.32-.326c-.435-.426-1.078-.726-1.902-.917l-.103.445Zm1.685.798c.344.338.522.778.522 1.341h.457c0-.67-.217-1.233-.66-1.667l-.319.326Zm.522 1.341c0 .475-.137.893-.41 1.26l.368.273c.332-.45.499-.963.499-1.533h-.457Zm-.41 1.261c-.27.367-.654.662-1.16.88l.18.42c.568-.245 1.021-.586 1.348-1.029l-.368-.271Zm-1.161.88c-.5.216-1.086.327-1.766.327v.457c.73 0 1.38-.12 1.947-.365l-.181-.42Zm-1.766.327c-.944 0-1.692-.201-2.261-.585l-.256.378c.665.449 1.51.664 2.517.664v-.457Zm-2.26-.585c-.564-.383-.91-.924-1.04-1.64l-.45.082c.151.829.562 1.48 1.232 1.936l.257-.378Zm-1.23-1.373 1.64-.25-.068-.451-1.64.25.068.45Zm1.384-.423c.113.475.352.85.722 1.106l.26-.376c-.265-.183-.447-.455-.538-.836l-.444.106Zm.724 1.107c.366.248.83.363 1.371.363v-.457c-.48 0-.845-.101-1.115-.284l-.256.378Zm1.371.363c.586 0 1.081-.121 1.464-.387l-.26-.375c-.283.196-.677.305-1.204.305v.457Zm1.466-.388c.379-.267.596-.617.596-1.044h-.457c0 .247-.116.469-.402.67l.263.374Zm.596-1.044c0-.338-.13-.628-.381-.856l-.307.338a.665.665 0 0 1 .231.518h.457Zm-.38-.854c-.242-.224-.594-.376-1.03-.475l-.1.445c.396.09.661.218.82.365l.31-.335Zm-1.031-.476-1.476-.323-.098.446 1.476.323.098-.446Zm-1.474-.323c-.79-.18-1.344-.46-1.691-.821l-.33.317c.433.449 1.082.759 1.92.95l.1-.446Zm-1.69-.82C42.174 6.875 42 6.42 42 5.852h-.456c0 .672.21 1.244.642 1.696l.33-.315ZM42 5.852c0-.47.13-.87.386-1.215l-.366-.272a2.426 2.426 0 0 0-.476 1.487H42Zm.386-1.215c.26-.349.623-.626 1.099-.828l-.179-.42c-.539.229-.97.553-1.286.976l.366.272Zm1.1-.829c.474-.205 1.023-.31 1.652-.31V3.04c-.68 0-1.293.114-1.833.348l.181.42Zm1.652-.31c.912 0 1.599.197 2.087.567l.276-.365c-.594-.448-1.39-.66-2.363-.66v.458Zm2.088.567c.498.372.827.87.989 1.503l.442-.113A3.08 3.08 0 0 0 47.5 3.699l-.274.366Z" mask="url(#a)"/></svg>