<svg xmlns="http://www.w3.org/2000/svg" width="45" height="14" fill="none"><mask id="a" width="45" height="15" x="0" y="-1" fill="#000" maskUnits="userSpaceOnUse"><path fill="#fff" d="M0-1h45v15H0z"/><path d="M12.146 6.794c0 1.325-.243 2.464-.727 3.418-.485.95-1.15 1.68-1.994 2.194-.84.51-1.796.764-2.867.764-1.075 0-2.035-.255-2.88-.764-.84-.513-1.502-1.247-1.987-2.2-.485-.954-.727-2.091-.727-3.412 0-1.326.242-2.463.727-3.413.485-.953 1.147-1.684 1.988-2.194.844-.513 1.804-.77 2.879-.77 1.07 0 2.026.257 2.867.77.844.51 1.509 1.24 1.994 2.194.484.95.727 2.087.727 3.413Zm-1.855 0c0-1.01-.163-1.861-.49-2.552-.324-.695-.768-1.22-1.334-1.576a3.464 3.464 0 0 0-1.91-.54c-.714 0-1.353.18-1.914.54-.562.356-1.006.881-1.334 1.576-.323.691-.485 1.542-.485 2.552s.162 1.862.485 2.557c.327.691.772 1.217 1.334 1.576.561.356 1.2.534 1.915.534a3.49 3.49 0 0 0 1.909-.534c.566-.36 1.01-.885 1.333-1.576.328-.695.491-1.547.491-2.557Zm6.754 6.412c-.59 0-1.124-.109-1.6-.327a2.695 2.695 0 0 1-1.134-.964c-.275-.42-.412-.935-.412-1.545 0-.526.101-.958.303-1.297.202-.34.475-.609.818-.807a4.273 4.273 0 0 1 1.152-.448 11.45 11.45 0 0 1 1.297-.23l1.357-.158c.348-.044.6-.115.758-.212.158-.097.236-.255.236-.473v-.042c0-.53-.149-.94-.448-1.23-.295-.291-.735-.437-1.321-.437-.61 0-1.091.135-1.443.406-.347.267-.588.564-.721.891l-1.703-.388c.202-.565.497-1.022.885-1.37a3.589 3.589 0 0 1 1.351-.763 5.276 5.276 0 0 1 1.606-.243c.372 0 .766.045 1.182.134.42.085.813.242 1.176.472.368.23.669.56.903.988.235.425.352.976.352 1.655V13h-1.77v-1.273h-.073a2.578 2.578 0 0 1-.527.691 2.803 2.803 0 0 1-.903.564c-.368.15-.808.224-1.321.224Zm.393-1.454c.502 0 .93-.1 1.285-.298a2.08 2.08 0 0 0 .819-.775c.19-.324.284-.669.284-1.037v-1.2c-.064.065-.19.126-.375.182-.182.053-.39.1-.625.14l-.684.103-.558.072c-.351.045-.673.12-.964.224a1.655 1.655 0 0 0-.69.455c-.17.194-.255.453-.255.776 0 .448.165.788.497 1.018.331.226.753.34 1.267.34Zm13.59-5.789-1.642.291a1.946 1.946 0 0 0-.327-.6 1.62 1.62 0 0 0-.594-.466c-.25-.122-.564-.182-.94-.182-.513 0-.941.115-1.285.345-.343.226-.515.52-.515.879 0 .311.115.562.346.752.23.19.602.345 1.115.466l1.479.34c.856.198 1.495.503 1.915.915.42.412.63.947.63 1.606a2.44 2.44 0 0 1-.485 1.491c-.319.432-.765.772-1.339 1.018-.57.247-1.23.37-1.982.37-1.042 0-1.893-.222-2.552-.667-.658-.448-1.062-1.085-1.212-1.909l1.752-.267c.109.457.333.802.673 1.037.339.23.781.345 1.327.345.594 0 1.069-.123 1.424-.37.356-.25.534-.555.534-.915 0-.29-.11-.535-.328-.733-.214-.198-.543-.348-.988-.449l-1.575-.345c-.87-.198-1.512-.513-1.928-.945-.412-.433-.618-.98-.618-1.643 0-.55.154-1.03.46-1.442.308-.413.732-.734 1.273-.964.542-.234 1.162-.352 1.861-.352 1.006 0 1.798.219 2.376.655.578.432.96 1.012 1.146 1.74ZM33.203 13V3.69h1.812V13h-1.812Zm.915-10.746c-.315 0-.586-.105-.812-.315a1.025 1.025 0 0 1-.334-.764c0-.299.112-.553.334-.763a1.14 1.14 0 0 1 .812-.322c.315 0 .584.107.806.322.226.21.34.464.34.763 0 .295-.114.55-.34.764a1.13 1.13 0 0 1-.806.315Zm10.311 3.71-1.643.29a1.946 1.946 0 0 0-.327-.6 1.62 1.62 0 0 0-.594-.466c-.25-.122-.563-.182-.94-.182-.512 0-.94.115-1.284.345-.343.226-.515.52-.515.879 0 .311.115.562.345.752.23.19.602.345 1.115.466l1.48.34c.856.198 1.494.503 1.914.915.42.412.63.947.63 1.606a2.44 2.44 0 0 1-.484 1.491c-.32.432-.766.772-1.34 1.018-.57.247-1.23.37-1.981.37-1.043 0-1.893-.222-2.552-.667-.659-.448-1.063-1.085-1.212-1.909l1.751-.267c.11.457.334.802.673 1.037.34.23.782.345 1.327.345.594 0 1.07-.123 1.425-.37.355-.25.533-.555.533-.915a.952.952 0 0 0-.327-.733c-.214-.198-.544-.348-.988-.449l-1.576-.345c-.869-.198-1.511-.513-1.927-.945-.412-.433-.619-.98-.619-1.643 0-.55.154-1.03.461-1.442.307-.413.731-.734 1.273-.964.541-.234 1.162-.352 1.86-.352 1.007 0 1.799.219 2.377.655.577.432.96 1.012 1.145 1.74Z"/></mask><path fill="#fff" d="M12.146 6.794c0 1.325-.243 2.464-.727 3.418-.485.95-1.15 1.68-1.994 2.194-.84.51-1.796.764-2.867.764-1.075 0-2.035-.255-2.88-.764-.84-.513-1.502-1.247-1.987-2.2-.485-.954-.727-2.091-.727-3.412 0-1.326.242-2.463.727-3.413.485-.953 1.147-1.684 1.988-2.194.844-.513 1.804-.77 2.879-.77 1.07 0 2.026.257 2.867.77.844.51 1.509 1.24 1.994 2.194.484.95.727 2.087.727 3.413Zm-1.855 0c0-1.01-.163-1.861-.49-2.552-.324-.695-.768-1.22-1.334-1.576a3.464 3.464 0 0 0-1.91-.54c-.714 0-1.353.18-1.914.54-.562.356-1.006.881-1.334 1.576-.323.691-.485 1.542-.485 2.552s.162 1.862.485 2.557c.327.691.772 1.217 1.334 1.576.561.356 1.2.534 1.915.534a3.49 3.49 0 0 0 1.909-.534c.566-.36 1.01-.885 1.333-1.576.328-.695.491-1.547.491-2.557Zm6.754 6.412c-.59 0-1.124-.109-1.6-.327a2.695 2.695 0 0 1-1.134-.964c-.275-.42-.412-.935-.412-1.545 0-.526.101-.958.303-1.297.202-.34.475-.609.818-.807a4.273 4.273 0 0 1 1.152-.448 11.45 11.45 0 0 1 1.297-.23l1.357-.158c.348-.044.6-.115.758-.212.158-.097.236-.255.236-.473v-.042c0-.53-.149-.94-.448-1.23-.295-.291-.735-.437-1.321-.437-.61 0-1.091.135-1.443.406-.347.267-.588.564-.721.891l-1.703-.388c.202-.565.497-1.022.885-1.37a3.589 3.589 0 0 1 1.351-.763 5.276 5.276 0 0 1 1.606-.243c.372 0 .766.045 1.182.134.42.085.813.242 1.176.472.368.23.669.56.903.988.235.425.352.976.352 1.655V13h-1.77v-1.273h-.073a2.578 2.578 0 0 1-.527.691 2.803 2.803 0 0 1-.903.564c-.368.15-.808.224-1.321.224Zm.393-1.454c.502 0 .93-.1 1.285-.298a2.08 2.08 0 0 0 .819-.775c.19-.324.284-.669.284-1.037v-1.2c-.064.065-.19.126-.375.182-.182.053-.39.1-.625.14l-.684.103-.558.072c-.351.045-.673.12-.964.224a1.655 1.655 0 0 0-.69.455c-.17.194-.255.453-.255.776 0 .448.165.788.497 1.018.331.226.753.34 1.267.34Zm13.59-5.789-1.642.291a1.946 1.946 0 0 0-.327-.6 1.62 1.62 0 0 0-.594-.466c-.25-.122-.564-.182-.94-.182-.513 0-.941.115-1.285.345-.343.226-.515.52-.515.879 0 .311.115.562.346.752.23.19.602.345 1.115.466l1.479.34c.856.198 1.495.503 1.915.915.42.412.63.947.63 1.606a2.44 2.44 0 0 1-.485 1.491c-.319.432-.765.772-1.339 1.018-.57.247-1.23.37-1.982.37-1.042 0-1.893-.222-2.552-.667-.658-.448-1.062-1.085-1.212-1.909l1.752-.267c.109.457.333.802.673 1.037.339.23.781.345 1.327.345.594 0 1.069-.123 1.424-.37.356-.25.534-.555.534-.915 0-.29-.11-.535-.328-.733-.214-.198-.543-.348-.988-.449l-1.575-.345c-.87-.198-1.512-.513-1.928-.945-.412-.433-.618-.98-.618-1.643 0-.55.154-1.03.46-1.442.308-.413.732-.734 1.273-.964.542-.234 1.162-.352 1.861-.352 1.006 0 1.798.219 2.376.655.578.432.96 1.012 1.146 1.74ZM33.203 13V3.69h1.812V13h-1.812Zm.915-10.746c-.315 0-.586-.105-.812-.315a1.025 1.025 0 0 1-.334-.764c0-.299.112-.553.334-.763a1.14 1.14 0 0 1 .812-.322c.315 0 .584.107.806.322.226.21.34.464.34.763 0 .295-.114.55-.34.764a1.13 1.13 0 0 1-.806.315Zm10.311 3.71-1.643.29a1.946 1.946 0 0 0-.327-.6 1.62 1.62 0 0 0-.594-.466c-.25-.122-.563-.182-.94-.182-.512 0-.94.115-1.284.345-.343.226-.515.52-.515.879 0 .311.115.562.345.752.23.19.602.345 1.115.466l1.48.34c.856.198 1.494.503 1.914.915.42.412.63.947.63 1.606a2.44 2.44 0 0 1-.484 1.491c-.32.432-.766.772-1.34 1.018-.57.247-1.23.37-1.981.37-1.043 0-1.893-.222-2.552-.667-.659-.448-1.063-1.085-1.212-1.909l1.751-.267c.11.457.334.802.673 1.037.34.23.782.345 1.327.345.594 0 1.07-.123 1.425-.37.355-.25.533-.555.533-.915a.952.952 0 0 0-.327-.733c-.214-.198-.544-.348-.988-.449l-1.576-.345c-.869-.198-1.511-.513-1.927-.945-.412-.433-.619-.98-.619-1.643 0-.55.154-1.03.461-1.442.307-.413.731-.734 1.273-.964.541-.234 1.162-.352 1.86-.352 1.007 0 1.799.219 2.377.655.577.432.96 1.012 1.145 1.74Z"/><path fill="#fff" d="m11.419 10.212.233.12v-.001l-.233-.119Zm-1.994 2.194.136.225-.136-.225Zm-5.746 0-.137.224h.001l.136-.224Zm-1.988-2.2.234-.12-.234.12Zm0-6.825.234.12-.234-.12Zm1.988-2.194.136.225-.136-.225Zm5.746 0-.137.225h.001l.136-.225Zm1.994 2.194-.234.12.234-.12ZM9.8 4.242l-.238.11.001.002.237-.112ZM8.467 2.666l-.142.221.002.002.14-.223Zm-3.824 0 .14.222h.001l-.141-.222ZM3.309 4.242l-.237-.112.237.112Zm0 5.11-.238.11v.002l.238-.113Zm1.334 1.575-.142.221.001.001.14-.222Zm3.824 0 .14.222-.14-.222ZM9.8 9.351l-.237-.112v.001l.237.111Zm2.083-2.557c0 1.293-.236 2.39-.698 3.299l.468.238c.507-.998.755-2.18.755-3.537h-.525Zm-.698 3.299c-.465.91-1.097 1.603-1.897 2.089l.273.448c.89-.54 1.586-1.31 2.091-2.299l-.467-.238ZM9.289 12.18c-.796.483-1.704.726-2.731.726v.525c1.114 0 2.118-.265 3.003-.801l-.272-.45Zm-2.731.726c-1.032 0-1.944-.244-2.744-.726l-.27.45c.888.536 1.896.801 3.014.801v-.525Zm-2.742-.725C3.02 11.696 2.39 11 1.925 10.087l-.468.238c.505.993 1.2 1.764 2.085 2.305l.274-.448Zm-1.891-2.095c-.462-.91-.699-2.004-.699-3.293H.701c0 1.353.248 2.533.756 3.531l.468-.238Zm-.699-3.293c0-1.294.237-2.388.699-3.293l-.468-.239C.95 4.256.701 5.437.701 6.794h.525ZM1.925 3.5c.465-.913 1.095-1.606 1.89-2.088l-.272-.45c-.886.538-1.581 1.307-2.086 2.3l.468.238Zm1.89-2.088C4.615.926 5.527.68 6.558.68V.155c-1.119 0-2.126.268-3.015.808l.272.449ZM6.558.68c1.027 0 1.934.246 2.73.732L9.56.963C8.676.423 7.672.155 6.558.155V.68Zm2.731.732c.799.482 1.431 1.175 1.896 2.088l.468-.238C11.148 2.27 10.45 1.5 9.56.962l-.271.45Zm1.896 2.089c.462.905.698 1.999.698 3.293h.526c0-1.357-.249-2.538-.757-3.532l-.467.239Zm-.631 3.293c0-1.037-.168-1.929-.516-2.664l-.475.224c.306.647.466 1.457.466 2.44h.525Zm-.515-2.663c-.342-.734-.818-1.3-1.432-1.687l-.28.445c.517.324.93.808 1.235 1.464l.477-.222Zm-1.43-1.686a3.726 3.726 0 0 0-2.051-.58v.524c.664 0 1.25.168 1.767.498l.284-.442Zm-2.051-.58c-.762 0-1.45.191-2.057.58l.283.442c.516-.33 1.105-.498 1.774-.498v-.525Zm-2.056.58c-.61.386-1.085.952-1.43 1.685l.475.224c.31-.657.723-1.141 1.236-1.466l-.28-.444ZM3.072 4.13c-.345.735-.51 1.626-.51 2.663h.525c0-.984.157-1.794.46-2.44l-.476-.223Zm-.51 2.663c0 1.036.165 1.93.51 2.668l.475-.221c-.303-.651-.46-1.464-.46-2.447h-.525Zm.51 2.67c.345.729.82 1.294 1.429 1.684l.283-.442c-.514-.33-.928-.814-1.237-1.467l-.475.225Zm1.43 1.685c.607.384 1.295.574 2.056.574v-.525c-.67 0-1.259-.166-1.775-.493l-.28.444Zm2.056.574c.757 0 1.443-.19 2.05-.574l-.281-.444a3.231 3.231 0 0 1-1.77.493v.525Zm2.05-.574c.613-.39 1.089-.957 1.43-1.686l-.475-.223c-.306.652-.719 1.136-1.237 1.466l.282.443Zm1.43-1.686c.348-.739.516-1.632.516-2.67h-.525c0 .984-.16 1.796-.466 2.447l.475.223Zm5.406 3.416-.11.238h.001l.11-.238Zm-1.133-.964-.22.144.001.001.22-.145Zm-.109-2.842.226.134-.226-.134Zm.818-.807.131.228-.13-.228Zm2.449-.678-.03-.261h-.001l.03.26Zm1.357-.158.03.26h.004l-.034-.26Zm.758-.212.138.224-.138-.224Zm-.212-1.746-.184.187v.002l.184-.189Zm-2.764-.03.16.208-.16-.208Zm-.721.891-.058.256.217.05.084-.207-.243-.099Zm-1.703-.388-.247-.088-.1.279.289.065.058-.256Zm.885-1.37.175.196-.175-.196Zm1.351-.763.078.25h.002l-.08-.25Zm2.788-.11-.054.257.002.001.052-.257Zm1.176.473-.14.222.14-.222Zm.903.988-.23.126v.001l.23-.127ZM21.64 13v.263h.262V13h-.262Zm-1.77 0h-.263v.263h.263V13Zm0-1.273h.262v-.262h-.262v.262Zm-.073 0v-.262h-.162l-.073.145.235.117Zm-.527.691-.182-.189.182.19Zm-.903.564-.099-.243.099.243Zm.357-1.527-.126-.23h-.001l.127.23Zm.819-.776-.227-.133.227.133Zm.284-2.237h.263v-.634l-.448.449.186.185Zm-.375.182.073.252h.003l-.076-.252Zm-.625.14.04.259h.005l-.044-.26Zm-.684.103.033.26h.004l-.037-.26Zm-.558.072.033.26h.002l-.035-.26Zm-.964.224-.089-.246h-.001l.09.246Zm-.69.455-.198-.173.197.173Zm.242 1.794-.15.216h.002l.148-.216Zm.873 1.531a3.538 3.538 0 0 1-1.491-.303l-.219.477a4.062 4.062 0 0 0 1.71.352v-.525Zm-1.49-.302a2.432 2.432 0 0 1-1.025-.871l-.438.29c.307.463.723.815 1.242 1.057l.222-.476Zm-1.024-.87c-.241-.369-.37-.831-.37-1.401h-.525c0 .65.147 1.218.455 1.689l.44-.288Zm-.37-1.401c0-.494.096-.876.267-1.163l-.452-.269c-.233.392-.34.874-.34 1.432h.526Zm.267-1.163c.179-.3.419-.537.723-.713l-.262-.455a2.5 2.5 0 0 0-.913.9l.452.268Zm.723-.713c.32-.184.68-.325 1.082-.42l-.122-.511a4.535 4.535 0 0 0-1.222.476l.262.455Zm1.082-.42a11.19 11.19 0 0 1 1.267-.226l-.062-.521c-.45.054-.893.132-1.327.236l.122.51Zm1.266-.226 1.358-.157-.06-.522-1.358.158.06.521Zm1.36-.157c.358-.046.656-.122.863-.25l-.276-.447c-.108.067-.315.132-.653.176l.067.52Zm.863-.25c.25-.153.361-.406.361-.696h-.525c0 .146-.047.21-.111.25l.275.447Zm.361-.696v-.042h-.525v.042h.525Zm0-.042c0-.58-.165-1.066-.528-1.419l-.366.377c.235.229.369.563.369 1.042h.525Zm-.527-1.418c-.361-.356-.88-.512-1.505-.512V5.3c.545 0 .908.135 1.137.36l.368-.374Zm-1.505-.512c-.647 0-1.191.144-1.603.461l.32.416c.291-.224.71-.351 1.283-.351v-.526Zm-1.603.46c-.375.29-.65.621-.804 1.001l.486.198c.112-.275.319-.537.638-.782l-.32-.416Zm-.503.844-1.703-.388-.116.512 1.703.388.116-.512Zm-1.514-.043c.19-.531.462-.949.813-1.263l-.35-.391c-.426.38-.743.876-.957 1.477l.494.176Zm.813-1.263c.364-.326.78-.562 1.254-.708l-.155-.502a3.852 3.852 0 0 0-1.45.819l.351.39Zm1.256-.709c.482-.153.99-.23 1.526-.23v-.525c-.587 0-1.149.084-1.685.255l.159.5Zm1.526-.23c.351 0 .727.042 1.128.127l.11-.513a5.93 5.93 0 0 0-1.238-.14v.526Zm1.13.128c.389.079.75.224 1.088.437l.28-.443a3.722 3.722 0 0 0-1.264-.509l-.104.515Zm1.089.438c.325.204.596.497.812.891l.46-.252a2.877 2.877 0 0 0-.994-1.084l-.278.445Zm.812.892c.206.373.32.877.32 1.528h.524c0-.706-.121-1.306-.384-1.782l-.46.254Zm.32 1.528V13h.524V6.818h-.525Zm.262 5.92h-1.77v.525h1.77v-.526ZM20.13 13v-1.273h-.525V13h.525Zm-.262-1.535h-.073v.525h.073v-.525Zm-.308.145a2.32 2.32 0 0 1-.474.62l.364.377c.251-.242.447-.496.58-.762l-.47-.235Zm-.474.62a2.566 2.566 0 0 1-.82.509l.198.486a3.07 3.07 0 0 0 .986-.618l-.364-.378Zm-.82.509c-.329.133-.734.204-1.222.204v.526c.537 0 1.013-.079 1.42-.244l-.198-.486Zm-.828-.725c.535 0 1.01-.106 1.412-.33l-.255-.459c-.309.172-.69.264-1.157.264v.525Zm1.411-.33c.397-.218.706-.508.919-.873l-.454-.264c-.16.273-.396.5-.718.678l.253.46Zm.918-.872c.213-.363.321-.754.321-1.17h-.525c0 .32-.082.62-.249.904l.453.266Zm.321-1.17v-1.2h-.525v1.2h.525Zm-.448-1.385c-.016.015-.086.06-.267.116l.153.502c.19-.058.371-.133.485-.247l-.371-.371Zm-.263.115a5.59 5.59 0 0 1-.596.133l.09.517c.24-.041.459-.09.652-.146l-.146-.504Zm-.592.132-.682.103.075.52.688-.104-.08-.519Zm-.678.102-.56.073.071.52.556-.072-.067-.521Zm-.557.073a4.754 4.754 0 0 0-1.02.238l.178.493c.27-.097.573-.168.908-.21l-.066-.521Zm-1.021.238c-.322.118-.59.292-.798.528l.395.346c.14-.16.331-.289.584-.381l-.181-.493Zm-.798.528c-.222.253-.32.579-.32.949h.525c0-.277.072-.468.19-.603l-.395-.346Zm-.32.949c0 .523.2.948.61 1.234l.3-.431c-.252-.176-.385-.43-.385-.803h-.525Zm.612 1.235c.385.263.863.385 1.415.385v-.525c-.476 0-.842-.105-1.12-.294l-.295.434Zm15.005-5.666.045.259.279-.05-.07-.274-.255.065Zm-1.643.291-.25.082.071.217.225-.04-.046-.259Zm-.327-.6-.209.16.002.003.207-.163Zm-.594-.466.114-.237-.114.237Zm-2.225.163.145.22.002-.002-.147-.218Zm.946 2.097-.06.256h.001l.059-.256Zm1.479.34.059-.256-.06.256Zm1.915.915-.184.187.184-.187Zm.145 3.097-.21-.156.21.156Zm-1.339 1.018-.104-.241.104.241Zm-4.534-.297-.147.217.148-.217Zm-1.212-1.909-.04-.26-.266.041.048.266.258-.047Zm1.752-.267.255-.06-.056-.236-.239.037.04.26Zm.673 1.037-.15.216.002.001.148-.217Zm2.751-.024.15.215h.002l-.152-.216Zm.206-1.649-.178.193.002.001.176-.194Zm-.988-.449.059-.256h-.002l-.057.256Zm-1.575-.345-.059.256h.002l.057-.256ZM24.53 7.97l-.19.18.001.002.19-.182Zm-.157-3.085-.21-.157.21.157Zm1.272-.964.103.241h.002l-.105-.241Zm4.237.303-.158.21.158-.21Zm1.1 1.48-1.643.292.092.517 1.642-.291-.091-.517Zm-1.348.469a2.207 2.207 0 0 0-.37-.681l-.413.325c.133.168.226.34.284.519l.5-.163Zm-.368-.678a1.88 1.88 0 0 0-.688-.544l-.229.473c.22.106.383.238.5.39l.417-.32Zm-.688-.544c-.296-.143-.652-.208-1.054-.208v.525c.35 0 .62.057.825.156l.23-.473Zm-1.054-.208c-.552 0-1.035.125-1.43.39l.292.436c.29-.195.665-.3 1.138-.3v-.526Zm-1.43.389c-.404.267-.632.636-.632 1.098h.525c0-.257.115-.474.397-.66l-.29-.438Zm-.632 1.098c0 .386.147.712.44.954l.335-.405a.665.665 0 0 1-.25-.549h-.525Zm.44.954c.277.228.696.395 1.223.52l.12-.511c-.5-.118-.824-.262-1.008-.414l-.334.405Zm1.224.52 1.479.34.117-.512-1.478-.34-.118.512Zm1.479.34c.83.192 1.417.48 1.79.846l.368-.375c-.468-.458-1.158-.78-2.04-.983l-.118.512Zm1.79.846c.364.357.552.822.552 1.419h.525c0-.72-.232-1.326-.71-1.794l-.367.375Zm.552 1.419c0 .503-.145.945-.434 1.335l.422.312a2.702 2.702 0 0 0 .537-1.647h-.525Zm-.434 1.335c-.287.39-.694.702-1.232.933l.208.482c.61-.261 1.096-.628 1.447-1.103l-.423-.312Zm-1.232.933c-.53.23-1.155.348-1.878.348v.525c.78 0 1.477-.127 2.086-.39l-.208-.483Zm-1.878.348c-1.006 0-1.801-.214-2.405-.622l-.293.436c.713.481 1.62.711 2.698.711v-.525ZM25 12.305c-.597-.407-.964-.98-1.101-1.74l-.517.094c.161.89.603 1.589 1.323 2.08l.295-.435Zm-1.32-1.433 1.751-.267-.079-.52-1.751.267.079.52Zm1.457-.466c.121.51.378.916.778 1.192l.299-.432c-.279-.193-.47-.479-.567-.882l-.51.122Zm.78 1.193c.395.268.894.39 1.475.39v-.524c-.51 0-.896-.108-1.18-.3l-.295.434Zm1.475.39c.628 0 1.16-.13 1.574-.416l-.3-.431c-.297.206-.714.323-1.274.323v.525Zm1.576-.417c.408-.288.644-.666.644-1.13h-.525c0 .256-.12.488-.422.7l.303.43Zm.644-1.13c0-.366-.141-.68-.413-.927l-.353.388a.69.69 0 0 1 .241.54h.525Zm-.411-.926c-.262-.242-.642-.406-1.108-.512l-.117.513c.423.096.702.23.868.385l.357-.386Zm-1.11-.512-1.576-.345-.113.512 1.576.346.113-.513Zm-1.574-.345c-.842-.192-1.43-.49-1.797-.872l-.378.365c.465.483 1.162.815 2.058 1.019l.117-.512Zm-1.796-.87c-.36-.379-.545-.859-.545-1.462h-.525c0 .722.226 1.337.69 1.824l.38-.363Zm-.545-1.462c0-.497.137-.922.408-1.286l-.42-.313a2.61 2.61 0 0 0-.514 1.599h.526Zm.408-1.286c.276-.37.66-.664 1.165-.879l-.205-.483c-.578.246-1.042.594-1.38 1.049l.42.313Zm1.167-.88c.503-.217 1.086-.33 1.756-.33v-.524c-.728 0-1.385.122-1.965.373l.209.482Zm1.756-.33c.97 0 1.7.212 2.218.602l.316-.419c-.638-.482-1.492-.707-2.534-.707v.525Zm2.219.603c.527.395.876.923 1.048 1.594l.509-.13c-.2-.782-.615-1.415-1.243-1.884l-.314.42ZM33.203 13h-.263v.263h.263V13Zm0-9.31v-.262h-.263v.263h.263Zm1.812 0h.263v-.262h-.263v.263Zm0 9.31v.263h.263V13h-.263Zm-1.71-11.061-.181.19.003.002.179-.192Zm0-1.527.181.19-.18-.19Zm1.62 0L34.741.6l.003.003.18-.192Zm0 1.527.18.19-.18-.19ZM33.464 13V3.69h-.525V13h.525Zm-.262-9.047h1.812v-.525h-1.812v.525Zm1.55-.262V13h.525V3.69h-.526Zm.262 9.046h-1.812v.526h1.812v-.526Zm-.897-10.745a.89.89 0 0 1-.634-.245l-.357.384c.276.257.611.386.991.386v-.525Zm-.63-.242a.763.763 0 0 1-.253-.575h-.525c0 .37.143.692.414.953l.364-.378Zm-.253-.575a.75.75 0 0 1 .251-.573l-.36-.381a1.275 1.275 0 0 0-.416.954h.525Zm.251-.573a.878.878 0 0 1 .632-.249v-.525c-.382 0-.717.132-.993.393l.361.381Zm.632-.249c.249 0 .452.082.624.248l.364-.378a1.382 1.382 0 0 0-.988-.395v.525Zm.627.251a.742.742 0 0 1 .256.571h.525a1.27 1.27 0 0 0-.423-.956l-.358.385Zm.256.571c0 .219-.08.406-.257.573l.36.382c.276-.26.422-.583.422-.955H35Zm-.257.573a.869.869 0 0 1-.626.244v.525c.38 0 .714-.13.986-.387l-.36-.382Zm9.685 4.215.046.259.278-.05-.07-.274-.254.065Zm-1.643.291-.25.082.072.217.224-.04-.046-.259Zm-.327-.6-.208.16.002.003.206-.163Zm-.594-.466.115-.237-.115.237Zm-2.224.163.144.22.002-.002-.146-.218Zm.945 2.097-.06.256h.002l.058-.256Zm1.48.34.058-.256-.059.256Zm1.914.915-.183.187.184-.187Zm.146 3.097-.211-.156.21.156Zm-1.34 1.018-.103-.241.103.241Zm-4.533-.297-.148.217h.001l.147-.217Zm-1.212-1.909-.04-.26-.267.041.048.266.259-.047Zm1.751-.267.256-.06-.056-.236-.24.037.04.26Zm.673 1.037-.15.216.003.001.147-.217Zm2.752-.024.15.215h.001l-.151-.216Zm.206-1.649-.178.193.001.001.177-.194Zm-.988-.449.058-.256h-.002l-.056.256Zm-1.576-.345-.058.256h.002l.056-.256Zm-1.927-.945-.19.18v.002l.19-.182Zm-.158-3.085-.21-.157.21.157Zm1.273-.964.103.241h.001l-.104-.241Zm4.236.303-.158.21h.001l.157-.21Zm1.1 1.48-1.642.292.091.517 1.643-.291-.092-.517Zm-1.347.469a2.21 2.21 0 0 0-.37-.681l-.413.325c.132.168.226.34.284.519l.5-.163Zm-.368-.678a1.881 1.881 0 0 0-.688-.544l-.23.473c.22.106.384.238.5.39l.418-.32Zm-.688-.544c-.297-.143-.652-.208-1.054-.208v.525c.35 0 .62.057.825.156l.229-.473Zm-1.054-.208c-.553 0-1.035.125-1.431.39l.292.436c.29-.195.665-.3 1.139-.3v-.526Zm-1.43.389c-.404.267-.633.636-.633 1.098h.525c0-.257.115-.474.397-.66l-.288-.438Zm-.633 1.098c0 .386.148.712.441.954l.334-.405a.664.664 0 0 1-.25-.549h-.525Zm.441.954c.277.228.695.395 1.222.52l.12-.511c-.499-.118-.824-.262-1.008-.414l-.334.405Zm1.224.52 1.479.34.117-.512-1.479-.34-.117.512Zm1.478.34c.831.192 1.418.48 1.79.846l.368-.375c-.467-.458-1.158-.78-2.04-.983l-.118.512Zm1.79.846c.364.357.552.822.552 1.419h.525c0-.72-.232-1.326-.709-1.794l-.367.375Zm.552 1.419c0 .503-.144.945-.433 1.335l.422.312a2.702 2.702 0 0 0 .536-1.647h-.525Zm-.433 1.335c-.288.39-.694.702-1.232.933l.207.482c.61-.261 1.096-.628 1.447-1.103l-.422-.312Zm-1.233.933c-.53.23-1.154.348-1.877.348v.525c.78 0 1.477-.127 2.086-.39l-.209-.483Zm-1.877.348c-1.007 0-1.802-.214-2.405-.622l-.294.436c.714.481 1.62.711 2.699.711v-.525Zm-2.404-.62c-.597-.407-.964-.98-1.102-1.74l-.517.094c.162.89.603 1.589 1.323 2.08l.296-.435Zm-1.32-1.433 1.75-.267-.078-.52-1.752.267.08.52Zm1.456-.466c.122.51.379.916.779 1.192l.298-.432c-.278-.193-.47-.479-.566-.882l-.511.122Zm.78 1.193c.396.268.895.39 1.475.39v-.524c-.51 0-.896-.108-1.18-.3l-.294.434Zm1.475.39c.628 0 1.161-.13 1.574-.416l-.299-.431c-.298.206-.715.323-1.275.323v.525Zm1.576-.417c.409-.288.645-.666.645-1.13h-.526c0 .256-.12.488-.422.7l.303.43Zm.645-1.13c0-.366-.142-.68-.414-.927l-.353.388a.69.69 0 0 1 .241.54h.526Zm-.412-.926c-.262-.242-.642-.406-1.108-.512l-.116.513c.422.096.701.23.868.385l.356-.386Zm-1.11-.512-1.576-.345-.112.512 1.576.346.112-.513Zm-1.574-.345c-.841-.192-1.429-.49-1.796-.872l-.378.365c.465.483 1.162.815 2.058 1.019l.116-.512Zm-1.795-.87c-.36-.379-.546-.859-.546-1.462h-.525c0 .722.227 1.337.69 1.824l.38-.363Zm-.546-1.462c0-.497.138-.922.409-1.286l-.421-.313a2.61 2.61 0 0 0-.513 1.599h.525Zm.409-1.286c.275-.37.66-.664 1.165-.879l-.206-.483c-.578.246-1.042.594-1.38 1.049l.42.313Zm1.166-.88c.503-.217 1.087-.33 1.757-.33v-.524c-.729 0-1.386.122-1.965.373l.208.482Zm1.757-.33c.97 0 1.7.212 2.217.602l.317-.419c-.638-.482-1.493-.707-2.534-.707v.525Zm2.218.603c.528.395.877.923 1.049 1.594l.508-.13c-.2-.782-.614-1.415-1.242-1.884l-.315.42Z" mask="url(#a)"/></svg>