<svg xmlns="http://www.w3.org/2000/svg" width="75" height="17" fill="none"><g clip-path="url(#a)"><path stroke="#fff" stroke-linecap="round" stroke-linejoin="round" stroke-width="1.575" d="M9.799.703v7.002m0 7.002V7.705m4.951-4.951-9.902 9.902m4.95-4.95h-7m11.953 4.95L4.848 2.754"/></g><path fill="#fff" d="M23.939 10.676h-4.203l-.722 2.05h-1.718l3.596-10.05h1.906l3.596 10.05H24.66l-.722-2.05Zm-.462-1.343-1.632-4.665-1.646 4.665h3.278Zm7.369 3.524c-.626 0-1.19-.111-1.69-.333a3.053 3.053 0 0 1-1.17-.924 2.338 2.338 0 0 1-.462-1.314h1.704c.03.337.188.62.477.852.298.221.669.332 1.112.332.462 0 .818-.087 1.069-.26.26-.183.39-.414.39-.693 0-.298-.145-.52-.434-.664-.279-.145-.727-.304-1.343-.477a13.033 13.033 0 0 1-1.458-.476 2.619 2.619 0 0 1-.983-.708c-.27-.318-.404-.737-.404-1.257 0-.423.125-.808.376-1.155.25-.356.606-.635 1.068-.837.472-.203 1.011-.304 1.618-.304.905 0 1.632.231 2.18.693.559.453.857 1.074.896 1.863h-1.647a1.173 1.173 0 0 0-.433-.852c-.26-.211-.611-.317-1.054-.317-.433 0-.765.082-.997.245a.76.76 0 0 0-.346.65c0 .212.077.39.231.534.154.145.342.26.563.347.222.077.549.178.982.303.578.154 1.05.313 1.416.477.375.154.698.385.967.693.27.308.41.717.419 1.228 0 .452-.125.856-.376 1.213-.25.356-.606.635-1.068.837-.453.202-.987.303-1.603.303Zm6.747-6.745v4.405c0 .299.067.515.202.65.144.125.385.188.722.188h1.01v1.372h-1.299c-.741 0-1.31-.174-1.704-.52-.395-.347-.592-.91-.592-1.69V6.112h-.939V4.77h.939V2.791h1.66v1.978h1.936v1.343h-1.935Zm10.745 2.44c0 .3-.02.569-.058.81H42.2c.049.635.284 1.145.708 1.53.424.386.944.578 1.56.578.885 0 1.511-.37 1.877-1.112h1.776a3.608 3.608 0 0 1-1.314 1.805c-.626.463-1.405.694-2.34.694-.76 0-1.443-.169-2.05-.506a3.777 3.777 0 0 1-1.415-1.444c-.337-.626-.506-1.348-.506-2.166 0-.819.164-1.536.491-2.152a3.553 3.553 0 0 1 1.401-1.444c.607-.337 1.3-.506 2.08-.506.75 0 1.42.164 2.007.491.587.328 1.045.79 1.372 1.387.327.587.491 1.266.491 2.036Zm-1.718-.519c-.01-.606-.227-1.093-.65-1.459-.424-.365-.949-.548-1.575-.548a2.1 2.1 0 0 0-1.458.548c-.404.357-.645.843-.722 1.459h4.405Zm4.985-2.108c.24-.405.558-.718.953-.94.404-.23.88-.346 1.43-.346v1.704h-.42c-.644 0-1.135.164-1.472.491-.328.328-.491.896-.491 1.705v4.188h-1.647V4.769h1.647v1.156Zm4.733-2.21a1.02 1.02 0 0 1-.75-.303 1.02 1.02 0 0 1-.304-.751c0-.299.101-.549.303-.751a1.02 1.02 0 0 1 .751-.303c.29 0 .535.1.737.303.202.202.303.452.303.75 0 .3-.1.55-.303.752a1.003 1.003 0 0 1-.737.303Zm.81 1.054v7.958H55.5V4.769h1.646Zm5.049 8.088c-.626 0-1.19-.111-1.69-.333a3.053 3.053 0 0 1-1.17-.924 2.338 2.338 0 0 1-.462-1.314h1.705c.028.337.187.62.476.852.299.221.67.332 1.112.332.462 0 .818-.087 1.069-.26.26-.183.39-.414.39-.693 0-.298-.145-.52-.434-.664-.279-.145-.726-.304-1.343-.477a13.033 13.033 0 0 1-1.458-.476 2.619 2.619 0 0 1-.982-.708c-.27-.318-.405-.737-.405-1.257 0-.423.125-.808.376-1.155.25-.356.606-.635 1.069-.837.471-.203 1.01-.304 1.617-.304.905 0 1.632.231 2.18.693.559.453.858 1.074.896 1.863h-1.646a1.173 1.173 0 0 0-.434-.852c-.26-.211-.61-.317-1.054-.317-.433 0-.765.082-.996.245a.76.76 0 0 0-.347.65c0 .212.077.39.231.534.154.145.342.26.563.347.222.077.55.178.982.303.578.154 1.05.313 1.416.477.375.154.698.385.967.693.27.308.41.717.42 1.228 0 .452-.126.856-.376 1.213-.25.356-.607.635-1.069.837-.453.202-.987.303-1.603.303Zm7.974-4.102 3.668 3.972h-2.224L68.67 9.304v3.423h-1.646V2.04h1.646v6.21l2.889-3.48h2.281l-3.668 3.985Z"/><defs><clipPath id="a"><path fill="#fff" d="M0 0h16.805v16.805H0z"/></clipPath></defs></svg>